# xmcd
#
# Track frame offsets:
#	150
#	16760
#	31501
#	53604
#	72620
#	87751
#	103818
#	117347
#	136387
#	155223
#	174194
#	191356
#	207591
#	219965
#	237451
#	253905
#
# Disc length: 3644 seconds
#
# Revision: 0
# Processed by: cddbd v1.5.2PL0 Copyright (c) Steve Scherf et al.
# Submitted via: audiograbber 1.83.01
#
DISCID=dd0e3a10
DTITLE=Various Artist - CB 5147-03
DYEAR=2011
DGENRE=Country
TTITLE0=Justin Moore - Bait A Hook
TTITLE1=Thompson Square - I Got You
TTITLE2=Randy Rogers Band - Interstate
TTITLE3=Martina McBride - Teenage Daughters
TTITLE4=Phil Vassar - Let's Get Together
TTITLE5=Miranda Lambert - That's The Way The World Goes Round
TTITLE6=Jake Owen - Barefoot Blue Jean Night
TTITLE7=Tim MCGraw ftg Gwyneth Paltrow - Me And Tennesse
TTITLE8=Randy Houser - In God's Time
TTITLE9=Josh Kelley - Gone Like That
TTITLE10=Jennette McCurdy - Generation Love
TTITLE11=Jacob Lyda - I'm Doing Alright
TTITLE12=Katie Armiger - Best Song Ever
TTITLE13=Jaron And The Long Road To Love - It's A Good Thing
TTITLE14=Jason Michael Carroll - Numbers
TTITLE15=Jeff Bates - Every Time You Go
EXTD=
EXTT0=
EXTT1=
EXTT2=
EXTT3=
EXTT4=
EXTT5=
EXTT6=
EXTT7=
EXTT8=
EXTT9=
EXTT10=
EXTT11=
EXTT12=
EXTT13=
EXTT14=
EXTT15=
PLAYORDER=
